<?xml version="1.0" encoding="UTF-8" standalone="no"?>
<svg
   class="MuiSvgIcon-root MuiSvgIcon-fontSizeMedium MuiBox-root css-uqopch"
   focusable="false"
   aria-hidden="true"
   viewBox="0 0 24 24"
   data-testid="FileOpenIcon"
   version="1.1"
   id="svg1"
   width="576"
   height="576"
   sodipodi:docname="sqPresets.svg"
   inkscape:version="1.2.2 (b0a8486541, 2022-12-01)"
   xmlns:inkscape="http://www.inkscape.org/namespaces/inkscape"
   xmlns:sodipodi="http://sodipodi.sourceforge.net/DTD/sodipodi-0.dtd"
   xmlns="http://www.w3.org/2000/svg"
   xmlns:svg="http://www.w3.org/2000/svg">
  <sodipodi:namedview
     id="namedview6"
     pagecolor="#ffffff"
     bordercolor="#000000"
     borderopacity="0.25"
     inkscape:showpageshadow="2"
     inkscape:pageopacity="0.0"
     inkscape:pagecheckerboard="0"
     inkscape:deskcolor="#d1d1d1"
     showgrid="false"
     inkscape:zoom="1.2899306"
     inkscape:cx="295.75235"
     inkscape:cy="291.87617"
     inkscape:window-width="1920"
     inkscape:window-height="1008"
     inkscape:window-x="1920"
     inkscape:window-y="0"
     inkscape:window-maximized="1"
     inkscape:current-layer="svg1" />
  <defs
     id="defs1" />
  <path
     d="M 22.540343,4.9818521 22.399463,5.005164 17.697497,6.6136918 12.414391,4.981852 7.4482722,6.4582784 C 7.2633636,6.5126731 7.1312857,6.6525452 7.1312857,6.8312706 V 18.580516 c 0,0.217578 0.1937139,0.388533 0.4402587,0.388533 l 0.140883,-0.02332 4.7019636,-1.608526 5.283106,1.63184 4.96612,-1.476428 c 0.184908,-0.0544 0.316986,-0.194267 0.316986,-0.37299 V 5.3703854 c 0,-0.2175786 -0.193714,-0.3885333 -0.44026,-0.3885333 M 17.697497,17.414917 12.414391,15.775306 V 6.5359851 l 5.283106,1.6396106 z"
     id="path980"
     style="fill:#d9dddd;fill-opacity:1;stroke:#4c4c4c;stroke-width:0.727927;stroke-linecap:round;stroke-linejoin:round;stroke-dasharray:none;stroke-opacity:1" />
  <path
     d="m 18.698479,0.72528116 c -2.093416,0 -3.78654,1.69312374 -3.78654,3.78653884 0,2.8399045 3.78654,7.032144 3.78654,7.032144 0,0 3.786538,-4.1922395 3.786538,-7.032144 0,-2.0934151 -1.693122,-3.78653884 -3.786538,-3.78653884 m 0,5.13887414 c -0.746491,0 -1.352336,-0.6058464 -1.352336,-1.3523353 0,-0.7464892 0.605845,-1.3523354 1.352336,-1.3523354 0.746488,0 1.352337,0.6058462 1.352337,1.3523354 0,0.7464889 -0.605849,1.3523353 -1.352337,1.3523353"
     id="path1075"
     style="fill:#f3c017;fill-opacity:1;stroke:#4c4c4c;stroke-width:0.727927;stroke-dasharray:none;stroke-opacity:1" />
  <path
     d="M 12.997071,20.592867 7.921179,15.516973 A 3.8251127,3.8251127 0 0 0 3.0681515,10.668492 l 3.1997232,3.199723 -2.4037723,2.403774 -3.19972291,-3.199724 a 3.8251127,3.8251127 0 0 0 4.84847871,4.85303 l 5.0758918,5.075892 a 1.703335,1.703335 0 1 0 2.408321,-2.40832 z"
     style="fill:#2896d3;stroke:#4c4c4c;stroke-width:0.571028;stroke-linecap:round;stroke-linejoin:round;stroke-dasharray:none;stroke-opacity:1"
     id="path4" />
</svg>
