<?xml version="1.0" encoding="UTF-8" standalone="no"?>
<svg
   class="MuiSvgIcon-root MuiSvgIcon-fontSizeMedium MuiBox-root css-uqopch"
   focusable="false"
   aria-hidden="true"
   viewBox="0 0 24 24"
   data-testid="FileOpenIcon"
   version="1.1"
   id="svg1"
   width="576"
   height="576"
   sodipodi:docname="sqSlam.svg"
   inkscape:version="1.2.2 (b0a8486541, 2022-12-01)"
   xmlns:inkscape="http://www.inkscape.org/namespaces/inkscape"
   xmlns:sodipodi="http://sodipodi.sourceforge.net/DTD/sodipodi-0.dtd"
   xmlns="http://www.w3.org/2000/svg"
   xmlns:svg="http://www.w3.org/2000/svg">
  <sodipodi:namedview
     id="namedview6"
     pagecolor="#ffffff"
     bordercolor="#000000"
     borderopacity="0.25"
     inkscape:showpageshadow="2"
     inkscape:pageopacity="0.0"
     inkscape:pagecheckerboard="0"
     inkscape:deskcolor="#d1d1d1"
     showgrid="false"
     inkscape:zoom="1.2899306"
     inkscape:cx="162.41184"
     inkscape:cy="287.99999"
     inkscape:window-width="1920"
     inkscape:window-height="1008"
     inkscape:window-x="1920"
     inkscape:window-y="0"
     inkscape:window-maximized="1"
     inkscape:current-layer="svg1" />
  <defs
     id="defs1" />
  <path
     d="m 20.988892,6.0123047 -0.169344,0.028022 -5.651967,1.93352 -6.3505224,-1.9615421 -5.96949,1.7747285 C 2.6253004,7.8524178 2.4665371,8.0205502 2.4665371,8.2353858 V 22.358488 c 0,0.261538 0.2328525,0.467033 0.5292101,0.467033 l 0.1693473,-0.02803 5.6519641,-1.933518 6.3505224,1.961541 5.969491,-1.774729 c 0.222268,-0.06539 0.381032,-0.233518 0.381032,-0.448351 V 6.4793385 c 0,-0.2615388 -0.232853,-0.4670338 -0.529212,-0.4670338 M 15.167581,20.957388 8.8170586,18.986504 V 7.8804399 l 6.3505224,1.970883 z"
     id="path980"
     style="fill:#d9dddd;fill-opacity:1;stroke:#4c4c4c;stroke-width:0.875;stroke-linecap:round;stroke-linejoin:round;stroke-dasharray:none;stroke-opacity:1" />
  <path
     d="m 16.370805,0.89572201 c -2.516377,0 -4.551585,2.03520809 -4.551585,4.55158369 0,3.4136883 4.551585,8.4529423 4.551585,8.4529423 0,0 4.551583,-5.039254 4.551583,-8.4529423 0,-2.5163756 -2.035206,-4.55158369 -4.551583,-4.55158369 m 0,6.17714939 c -0.897314,0 -1.625566,-0.7282536 -1.625566,-1.6255657 0,-0.8973123 0.728252,-1.6255656 1.625566,-1.6255656 0.897311,0 1.625568,0.7282533 1.625568,1.6255656 0,0.8973121 -0.728257,1.6255657 -1.625568,1.6255657"
     id="path1075"
     style="fill:#f3c017;fill-opacity:1;stroke:#4c4c4c;stroke-width:0.875;stroke-dasharray:none;stroke-opacity:1" />
</svg>
